<mxfile host="app.diagrams.net" agent="Mozilla/5.0 (Windows NT 10.0; Win64; x64) AppleWebKit/537.36 (KHTML, like Gecko) Chrome/131.0.0.0 Safari/537.36 Edg/131.0.0.0" version="25.0.3">
  <diagram name="Page-1" id="iFCzqt4CrtoDSSRa2DL4">
    <mxGraphModel dx="1209" dy="700" grid="1" gridSize="10" guides="1" tooltips="1" connect="1" arrows="1" fold="1" page="1" pageScale="1" pageWidth="827" pageHeight="1169" math="0" shadow="0">
      <root>
        <mxCell id="0" />
        <mxCell id="1" parent="0" />
        <mxCell id="cca4ETdbcq7dfHgLFpe_-110" value="" style="rounded=0;whiteSpace=wrap;html=1;" vertex="1" parent="1">
          <mxGeometry x="1130" y="550" width="800" height="265" as="geometry" />
        </mxCell>
        <mxCell id="cca4ETdbcq7dfHgLFpe_-102" value="" style="rounded=0;whiteSpace=wrap;html=1;" vertex="1" parent="1">
          <mxGeometry x="1130" y="290" width="800" height="220" as="geometry" />
        </mxCell>
        <mxCell id="cca4ETdbcq7dfHgLFpe_-1" value="User" style="shape=umlActor;verticalLabelPosition=bottom;verticalAlign=top;html=1;outlineConnect=0;" vertex="1" parent="1">
          <mxGeometry x="140" y="120" width="50" height="110" as="geometry" />
        </mxCell>
        <mxCell id="cca4ETdbcq7dfHgLFpe_-2" value="WishlistController" style="rounded=0;whiteSpace=wrap;html=1;" vertex="1" parent="1">
          <mxGeometry x="280" y="160" width="120" height="60" as="geometry" />
        </mxCell>
        <mxCell id="cca4ETdbcq7dfHgLFpe_-3" value="WishlistService" style="rounded=0;whiteSpace=wrap;html=1;" vertex="1" parent="1">
          <mxGeometry x="470" y="160" width="120" height="60" as="geometry" />
        </mxCell>
        <mxCell id="cca4ETdbcq7dfHgLFpe_-4" value="WishlistRepository" style="rounded=0;whiteSpace=wrap;html=1;" vertex="1" parent="1">
          <mxGeometry x="660" y="160" width="120" height="60" as="geometry" />
        </mxCell>
        <mxCell id="cca4ETdbcq7dfHgLFpe_-6" value="Database" style="rounded=0;whiteSpace=wrap;html=1;" vertex="1" parent="1">
          <mxGeometry x="840" y="160" width="120" height="60" as="geometry" />
        </mxCell>
        <mxCell id="cca4ETdbcq7dfHgLFpe_-7" value="" style="endArrow=none;dashed=1;html=1;rounded=0;" edge="1" parent="1">
          <mxGeometry width="50" height="50" relative="1" as="geometry">
            <mxPoint x="160" y="780.7842658547794" as="sourcePoint" />
            <mxPoint x="164.5" y="220" as="targetPoint" />
          </mxGeometry>
        </mxCell>
        <mxCell id="cca4ETdbcq7dfHgLFpe_-8" value="" style="endArrow=none;dashed=1;html=1;rounded=0;" edge="1" parent="1" source="cca4ETdbcq7dfHgLFpe_-34">
          <mxGeometry width="50" height="50" relative="1" as="geometry">
            <mxPoint x="340" y="780" as="sourcePoint" />
            <mxPoint x="339.5" y="220" as="targetPoint" />
          </mxGeometry>
        </mxCell>
        <mxCell id="cca4ETdbcq7dfHgLFpe_-9" value="" style="endArrow=none;dashed=1;html=1;rounded=0;" edge="1" parent="1" source="cca4ETdbcq7dfHgLFpe_-36">
          <mxGeometry width="50" height="50" relative="1" as="geometry">
            <mxPoint x="530" y="791.5686753216912" as="sourcePoint" />
            <mxPoint x="529.5" y="220" as="targetPoint" />
          </mxGeometry>
        </mxCell>
        <mxCell id="cca4ETdbcq7dfHgLFpe_-10" value="" style="endArrow=none;dashed=1;html=1;rounded=0;" edge="1" parent="1" source="cca4ETdbcq7dfHgLFpe_-38">
          <mxGeometry width="50" height="50" relative="1" as="geometry">
            <mxPoint x="730" y="811.568603515625" as="sourcePoint" />
            <mxPoint x="730" y="220" as="targetPoint" />
          </mxGeometry>
        </mxCell>
        <mxCell id="cca4ETdbcq7dfHgLFpe_-11" value="" style="endArrow=none;dashed=1;html=1;rounded=0;" edge="1" parent="1" source="cca4ETdbcq7dfHgLFpe_-40">
          <mxGeometry width="50" height="50" relative="1" as="geometry">
            <mxPoint x="900" y="814.7058823529412" as="sourcePoint" />
            <mxPoint x="899.41" y="220" as="targetPoint" />
          </mxGeometry>
        </mxCell>
        <mxCell id="cca4ETdbcq7dfHgLFpe_-14" value="addItem(shoeId)" style="text;html=1;align=center;verticalAlign=middle;whiteSpace=wrap;rounded=0;" vertex="1" parent="1">
          <mxGeometry x="210" y="350" width="60" height="30" as="geometry" />
        </mxCell>
        <mxCell id="cca4ETdbcq7dfHgLFpe_-15" value="" style="endArrow=classic;html=1;rounded=0;entryX=0.025;entryY=0.367;entryDx=0;entryDy=0;entryPerimeter=0;" edge="1" parent="1" target="cca4ETdbcq7dfHgLFpe_-38">
          <mxGeometry width="50" height="50" relative="1" as="geometry">
            <mxPoint x="530" y="350" as="sourcePoint" />
            <mxPoint x="730" y="350" as="targetPoint" />
          </mxGeometry>
        </mxCell>
        <mxCell id="cca4ETdbcq7dfHgLFpe_-16" value="saveToDatabase(wishlist)" style="text;html=1;align=center;verticalAlign=middle;whiteSpace=wrap;rounded=0;" vertex="1" parent="1">
          <mxGeometry x="580" y="350" width="60" height="30" as="geometry" />
        </mxCell>
        <mxCell id="cca4ETdbcq7dfHgLFpe_-18" value="" style="endArrow=classic;html=1;rounded=0;entryX=-0.123;entryY=0.343;entryDx=0;entryDy=0;entryPerimeter=0;" edge="1" parent="1" target="cca4ETdbcq7dfHgLFpe_-40">
          <mxGeometry width="50" height="50" relative="1" as="geometry">
            <mxPoint x="730" y="350" as="sourcePoint" />
            <mxPoint x="880" y="350" as="targetPoint" />
          </mxGeometry>
        </mxCell>
        <mxCell id="cca4ETdbcq7dfHgLFpe_-19" value="INSERT WishlistItem" style="text;html=1;align=center;verticalAlign=middle;whiteSpace=wrap;rounded=0;" vertex="1" parent="1">
          <mxGeometry x="780" y="350" width="60" height="30" as="geometry" />
        </mxCell>
        <mxCell id="cca4ETdbcq7dfHgLFpe_-23" value="" style="endArrow=none;dashed=1;html=1;rounded=0;startArrow=classic;startFill=1;" edge="1" parent="1">
          <mxGeometry width="50" height="50" relative="1" as="geometry">
            <mxPoint x="727.5" y="441.18" as="sourcePoint" />
            <mxPoint x="902.5" y="441.18" as="targetPoint" />
          </mxGeometry>
        </mxCell>
        <mxCell id="cca4ETdbcq7dfHgLFpe_-24" value="Success" style="text;html=1;align=center;verticalAlign=middle;whiteSpace=wrap;rounded=0;" vertex="1" parent="1">
          <mxGeometry x="777.5" y="401.18" width="60" height="30" as="geometry" />
        </mxCell>
        <mxCell id="cca4ETdbcq7dfHgLFpe_-27" value="" style="endArrow=none;dashed=1;html=1;rounded=0;startArrow=classic;startFill=1;" edge="1" parent="1">
          <mxGeometry width="50" height="50" relative="1" as="geometry">
            <mxPoint x="337.5" y="441.18" as="sourcePoint" />
            <mxPoint x="532.5" y="441.18" as="targetPoint" />
          </mxGeometry>
        </mxCell>
        <mxCell id="cca4ETdbcq7dfHgLFpe_-28" value="Success" style="text;html=1;align=center;verticalAlign=middle;whiteSpace=wrap;rounded=0;" vertex="1" parent="1">
          <mxGeometry x="407.5" y="401.18" width="60" height="30" as="geometry" />
        </mxCell>
        <mxCell id="cca4ETdbcq7dfHgLFpe_-29" value="" style="endArrow=none;dashed=1;html=1;rounded=0;startArrow=classic;startFill=1;" edge="1" parent="1">
          <mxGeometry width="50" height="50" relative="1" as="geometry">
            <mxPoint x="527.5" y="440.18" as="sourcePoint" />
            <mxPoint x="732.5" y="440" as="targetPoint" />
          </mxGeometry>
        </mxCell>
        <mxCell id="cca4ETdbcq7dfHgLFpe_-30" value="Success" style="text;html=1;align=center;verticalAlign=middle;whiteSpace=wrap;rounded=0;" vertex="1" parent="1">
          <mxGeometry x="607.5" y="400" width="60" height="30" as="geometry" />
        </mxCell>
        <mxCell id="cca4ETdbcq7dfHgLFpe_-31" value="" style="endArrow=none;dashed=1;html=1;rounded=0;startArrow=classic;startFill=1;" edge="1" parent="1">
          <mxGeometry width="50" height="50" relative="1" as="geometry">
            <mxPoint x="157.5" y="441.18" as="sourcePoint" />
            <mxPoint x="342.5" y="441.18" as="targetPoint" />
          </mxGeometry>
        </mxCell>
        <mxCell id="cca4ETdbcq7dfHgLFpe_-32" value="Item added to wishlist" style="text;html=1;align=center;verticalAlign=middle;whiteSpace=wrap;rounded=0;" vertex="1" parent="1">
          <mxGeometry x="217.5" y="401.18" width="60" height="30" as="geometry" />
        </mxCell>
        <mxCell id="cca4ETdbcq7dfHgLFpe_-35" value="" style="endArrow=none;dashed=1;html=1;rounded=0;" edge="1" parent="1" target="cca4ETdbcq7dfHgLFpe_-34">
          <mxGeometry width="50" height="50" relative="1" as="geometry">
            <mxPoint x="340" y="780" as="sourcePoint" />
            <mxPoint x="339.5" y="220" as="targetPoint" />
          </mxGeometry>
        </mxCell>
        <mxCell id="cca4ETdbcq7dfHgLFpe_-34" value="" style="rounded=0;whiteSpace=wrap;html=1;" vertex="1" parent="1">
          <mxGeometry x="330" y="320" width="20" height="100" as="geometry" />
        </mxCell>
        <mxCell id="cca4ETdbcq7dfHgLFpe_-17" value="validateAndProcess(shoeId)" style="text;html=1;align=center;verticalAlign=middle;whiteSpace=wrap;rounded=0;" vertex="1" parent="1">
          <mxGeometry x="390" y="350" width="60" height="30" as="geometry" />
        </mxCell>
        <mxCell id="cca4ETdbcq7dfHgLFpe_-12" value="" style="endArrow=classic;html=1;rounded=0;" edge="1" parent="1">
          <mxGeometry width="50" height="50" relative="1" as="geometry">
            <mxPoint x="160" y="350" as="sourcePoint" />
            <mxPoint x="330" y="350" as="targetPoint" />
          </mxGeometry>
        </mxCell>
        <mxCell id="cca4ETdbcq7dfHgLFpe_-37" value="" style="endArrow=none;dashed=1;html=1;rounded=0;" edge="1" parent="1" target="cca4ETdbcq7dfHgLFpe_-36">
          <mxGeometry width="50" height="50" relative="1" as="geometry">
            <mxPoint x="530" y="791.5686753216912" as="sourcePoint" />
            <mxPoint x="529.5" y="220" as="targetPoint" />
          </mxGeometry>
        </mxCell>
        <mxCell id="cca4ETdbcq7dfHgLFpe_-36" value="" style="rounded=0;whiteSpace=wrap;html=1;" vertex="1" parent="1">
          <mxGeometry x="520" y="320" width="20" height="100" as="geometry" />
        </mxCell>
        <mxCell id="cca4ETdbcq7dfHgLFpe_-13" value="" style="endArrow=classic;html=1;rounded=0;" edge="1" parent="1">
          <mxGeometry width="50" height="50" relative="1" as="geometry">
            <mxPoint x="340" y="350" as="sourcePoint" />
            <mxPoint x="520" y="350" as="targetPoint" />
          </mxGeometry>
        </mxCell>
        <mxCell id="cca4ETdbcq7dfHgLFpe_-39" value="" style="endArrow=none;dashed=1;html=1;rounded=0;" edge="1" parent="1" target="cca4ETdbcq7dfHgLFpe_-38">
          <mxGeometry width="50" height="50" relative="1" as="geometry">
            <mxPoint x="730" y="811.568603515625" as="sourcePoint" />
            <mxPoint x="730" y="220" as="targetPoint" />
          </mxGeometry>
        </mxCell>
        <mxCell id="cca4ETdbcq7dfHgLFpe_-38" value="" style="rounded=0;whiteSpace=wrap;html=1;" vertex="1" parent="1">
          <mxGeometry x="720" y="315" width="20" height="100" as="geometry" />
        </mxCell>
        <mxCell id="cca4ETdbcq7dfHgLFpe_-41" value="" style="endArrow=none;dashed=1;html=1;rounded=0;" edge="1" parent="1" target="cca4ETdbcq7dfHgLFpe_-40">
          <mxGeometry width="50" height="50" relative="1" as="geometry">
            <mxPoint x="900" y="814.7058823529412" as="sourcePoint" />
            <mxPoint x="899.41" y="220" as="targetPoint" />
          </mxGeometry>
        </mxCell>
        <mxCell id="cca4ETdbcq7dfHgLFpe_-40" value="" style="rounded=0;whiteSpace=wrap;html=1;" vertex="1" parent="1">
          <mxGeometry x="890" y="315" width="20" height="100" as="geometry" />
        </mxCell>
        <mxCell id="cca4ETdbcq7dfHgLFpe_-42" value="User" style="shape=umlActor;verticalLabelPosition=bottom;verticalAlign=top;html=1;outlineConnect=0;" vertex="1" parent="1">
          <mxGeometry x="1120" y="135" width="50" height="110" as="geometry" />
        </mxCell>
        <mxCell id="cca4ETdbcq7dfHgLFpe_-43" value="OrderController" style="rounded=0;whiteSpace=wrap;html=1;" vertex="1" parent="1">
          <mxGeometry x="1260" y="175" width="120" height="60" as="geometry" />
        </mxCell>
        <mxCell id="cca4ETdbcq7dfHgLFpe_-44" value="OrderService" style="rounded=0;whiteSpace=wrap;html=1;" vertex="1" parent="1">
          <mxGeometry x="1450" y="175" width="120" height="60" as="geometry" />
        </mxCell>
        <mxCell id="cca4ETdbcq7dfHgLFpe_-45" value="OrderRepository" style="rounded=0;whiteSpace=wrap;html=1;" vertex="1" parent="1">
          <mxGeometry x="1640" y="175" width="120" height="60" as="geometry" />
        </mxCell>
        <mxCell id="cca4ETdbcq7dfHgLFpe_-46" value="Database" style="rounded=0;whiteSpace=wrap;html=1;" vertex="1" parent="1">
          <mxGeometry x="1820" y="175" width="120" height="60" as="geometry" />
        </mxCell>
        <mxCell id="cca4ETdbcq7dfHgLFpe_-76" value="" style="endArrow=none;dashed=1;html=1;rounded=0;" edge="1" parent="1" source="cca4ETdbcq7dfHgLFpe_-120">
          <mxGeometry width="50" height="50" relative="1" as="geometry">
            <mxPoint x="1142.75" y="840.78" as="sourcePoint" />
            <mxPoint x="1147.25" y="279.9957341452206" as="targetPoint" />
          </mxGeometry>
        </mxCell>
        <mxCell id="cca4ETdbcq7dfHgLFpe_-77" value="" style="endArrow=none;dashed=1;html=1;rounded=0;" edge="1" parent="1">
          <mxGeometry width="50" height="50" relative="1" as="geometry">
            <mxPoint x="1878" y="840" as="sourcePoint" />
            <mxPoint x="1882.25" y="234.99573414522058" as="targetPoint" />
          </mxGeometry>
        </mxCell>
        <mxCell id="cca4ETdbcq7dfHgLFpe_-78" value="" style="endArrow=none;dashed=1;html=1;rounded=0;" edge="1" parent="1">
          <mxGeometry width="50" height="50" relative="1" as="geometry">
            <mxPoint x="1690" y="840" as="sourcePoint" />
            <mxPoint x="1694.5" y="234.99573414522058" as="targetPoint" />
          </mxGeometry>
        </mxCell>
        <mxCell id="cca4ETdbcq7dfHgLFpe_-79" value="" style="endArrow=none;dashed=1;html=1;rounded=0;" edge="1" parent="1" source="cca4ETdbcq7dfHgLFpe_-114">
          <mxGeometry width="50" height="50" relative="1" as="geometry">
            <mxPoint x="1508" y="840" as="sourcePoint" />
            <mxPoint x="1512.25" y="229.99573414522058" as="targetPoint" />
          </mxGeometry>
        </mxCell>
        <mxCell id="cca4ETdbcq7dfHgLFpe_-80" value="" style="endArrow=none;dashed=1;html=1;rounded=0;" edge="1" parent="1" source="cca4ETdbcq7dfHgLFpe_-112">
          <mxGeometry width="50" height="50" relative="1" as="geometry">
            <mxPoint x="1318" y="840" as="sourcePoint" />
            <mxPoint x="1322.25" y="234.99573414522058" as="targetPoint" />
          </mxGeometry>
        </mxCell>
        <mxCell id="cca4ETdbcq7dfHgLFpe_-81" value="" style="endArrow=classic;html=1;rounded=0;entryX=0.066;entryY=0.218;entryDx=0;entryDy=0;entryPerimeter=0;" edge="1" parent="1" target="cca4ETdbcq7dfHgLFpe_-112">
          <mxGeometry width="50" height="50" relative="1" as="geometry">
            <mxPoint x="1150" y="330" as="sourcePoint" />
            <mxPoint x="1320" y="330" as="targetPoint" />
          </mxGeometry>
        </mxCell>
        <mxCell id="cca4ETdbcq7dfHgLFpe_-85" value="placeOrder(orderDetails)" style="text;html=1;align=center;verticalAlign=middle;whiteSpace=wrap;rounded=0;" vertex="1" parent="1">
          <mxGeometry x="1211" y="290" width="60" height="30" as="geometry" />
        </mxCell>
        <mxCell id="cca4ETdbcq7dfHgLFpe_-86" value="" style="endArrow=classic;html=1;rounded=0;entryX=0.002;entryY=0.409;entryDx=0;entryDy=0;entryPerimeter=0;" edge="1" parent="1" target="cca4ETdbcq7dfHgLFpe_-117">
          <mxGeometry width="50" height="50" relative="1" as="geometry">
            <mxPoint x="1690" y="370" as="sourcePoint" />
            <mxPoint x="1880" y="370" as="targetPoint" />
          </mxGeometry>
        </mxCell>
        <mxCell id="cca4ETdbcq7dfHgLFpe_-87" value="INSERT Order and Items" style="text;html=1;align=center;verticalAlign=middle;whiteSpace=wrap;rounded=0;" vertex="1" parent="1">
          <mxGeometry x="1750" y="330" width="60" height="30" as="geometry" />
        </mxCell>
        <mxCell id="cca4ETdbcq7dfHgLFpe_-88" value="" style="endArrow=classic;html=1;rounded=0;entryX=0.018;entryY=0.317;entryDx=0;entryDy=0;entryPerimeter=0;" edge="1" parent="1" target="cca4ETdbcq7dfHgLFpe_-116">
          <mxGeometry width="50" height="50" relative="1" as="geometry">
            <mxPoint x="1510" y="355" as="sourcePoint" />
            <mxPoint x="1700" y="355" as="targetPoint" />
          </mxGeometry>
        </mxCell>
        <mxCell id="cca4ETdbcq7dfHgLFpe_-89" value="saveOrder(order)" style="text;html=1;align=center;verticalAlign=middle;whiteSpace=wrap;rounded=0;" vertex="1" parent="1">
          <mxGeometry x="1570" y="315" width="60" height="30" as="geometry" />
        </mxCell>
        <mxCell id="cca4ETdbcq7dfHgLFpe_-90" value="" style="endArrow=classic;html=1;rounded=0;entryX=0;entryY=0.25;entryDx=0;entryDy=0;" edge="1" parent="1" target="cca4ETdbcq7dfHgLFpe_-114">
          <mxGeometry width="50" height="50" relative="1" as="geometry">
            <mxPoint x="1320" y="340" as="sourcePoint" />
            <mxPoint x="1510" y="340" as="targetPoint" />
          </mxGeometry>
        </mxCell>
        <mxCell id="cca4ETdbcq7dfHgLFpe_-92" value="" style="endArrow=none;dashed=1;html=1;rounded=0;startArrow=classic;startFill=1;exitX=1.09;exitY=0.695;exitDx=0;exitDy=0;exitPerimeter=0;" edge="1" parent="1" source="cca4ETdbcq7dfHgLFpe_-116">
          <mxGeometry width="50" height="50" relative="1" as="geometry">
            <mxPoint x="1690" y="430" as="sourcePoint" />
            <mxPoint x="1885" y="430" as="targetPoint" />
          </mxGeometry>
        </mxCell>
        <mxCell id="cca4ETdbcq7dfHgLFpe_-93" value="Success" style="text;html=1;align=center;verticalAlign=middle;whiteSpace=wrap;rounded=0;" vertex="1" parent="1">
          <mxGeometry x="1760" y="390" width="60" height="30" as="geometry" />
        </mxCell>
        <mxCell id="cca4ETdbcq7dfHgLFpe_-94" value="" style="endArrow=none;dashed=1;html=1;rounded=0;startArrow=classic;startFill=1;exitX=1.233;exitY=0.806;exitDx=0;exitDy=0;exitPerimeter=0;" edge="1" parent="1" source="cca4ETdbcq7dfHgLFpe_-114">
          <mxGeometry width="50" height="50" relative="1" as="geometry">
            <mxPoint x="1510" y="450" as="sourcePoint" />
            <mxPoint x="1695" y="450" as="targetPoint" />
          </mxGeometry>
        </mxCell>
        <mxCell id="cca4ETdbcq7dfHgLFpe_-95" value="Success" style="text;html=1;align=center;verticalAlign=middle;whiteSpace=wrap;rounded=0;" vertex="1" parent="1">
          <mxGeometry x="1570" y="410" width="60" height="30" as="geometry" />
        </mxCell>
        <mxCell id="cca4ETdbcq7dfHgLFpe_-96" value="" style="endArrow=none;dashed=1;html=1;rounded=0;startArrow=classic;startFill=1;exitX=1.177;exitY=0.91;exitDx=0;exitDy=0;exitPerimeter=0;" edge="1" parent="1" source="cca4ETdbcq7dfHgLFpe_-112">
          <mxGeometry width="50" height="50" relative="1" as="geometry">
            <mxPoint x="1320" y="470" as="sourcePoint" />
            <mxPoint x="1513.5" y="470" as="targetPoint" />
          </mxGeometry>
        </mxCell>
        <mxCell id="cca4ETdbcq7dfHgLFpe_-97" value="Order Placed Successfully" style="text;html=1;align=center;verticalAlign=middle;whiteSpace=wrap;rounded=0;" vertex="1" parent="1">
          <mxGeometry x="1388.5" y="430" width="60" height="30" as="geometry" />
        </mxCell>
        <mxCell id="cca4ETdbcq7dfHgLFpe_-98" value="" style="endArrow=none;dashed=1;html=1;rounded=0;startArrow=classic;startFill=1;" edge="1" parent="1">
          <mxGeometry width="50" height="50" relative="1" as="geometry">
            <mxPoint x="1140" y="490" as="sourcePoint" />
            <mxPoint x="1323.5" y="490" as="targetPoint" />
          </mxGeometry>
        </mxCell>
        <mxCell id="cca4ETdbcq7dfHgLFpe_-99" value="Order Confirmation" style="text;html=1;align=center;verticalAlign=middle;whiteSpace=wrap;rounded=0;" vertex="1" parent="1">
          <mxGeometry x="1198.5" y="450" width="60" height="30" as="geometry" />
        </mxCell>
        <mxCell id="cca4ETdbcq7dfHgLFpe_-100" value="Is the order valid?" style="text;html=1;align=center;verticalAlign=middle;whiteSpace=wrap;rounded=0;" vertex="1" parent="1">
          <mxGeometry x="1280" y="120" width="90" height="30" as="geometry" />
        </mxCell>
        <mxCell id="cca4ETdbcq7dfHgLFpe_-101" value="YES PHASE" style="text;html=1;align=center;verticalAlign=middle;whiteSpace=wrap;rounded=0;" vertex="1" parent="1">
          <mxGeometry x="1388.5" y="370" width="60" height="30" as="geometry" />
        </mxCell>
        <mxCell id="cca4ETdbcq7dfHgLFpe_-103" value="" style="endArrow=classic;dashed=1;html=1;rounded=0;startArrow=none;startFill=0;endFill=1;entryX=-0.001;entryY=0.38;entryDx=0;entryDy=0;entryPerimeter=0;" edge="1" parent="1" target="cca4ETdbcq7dfHgLFpe_-118">
          <mxGeometry width="50" height="50" relative="1" as="geometry">
            <mxPoint x="1150" y="680" as="sourcePoint" />
            <mxPoint x="1320" y="680" as="targetPoint" />
          </mxGeometry>
        </mxCell>
        <mxCell id="cca4ETdbcq7dfHgLFpe_-104" value="No" style="text;html=1;align=center;verticalAlign=middle;whiteSpace=wrap;rounded=0;" vertex="1" parent="1">
          <mxGeometry x="1190" y="640" width="60" height="30" as="geometry" />
        </mxCell>
        <mxCell id="cca4ETdbcq7dfHgLFpe_-105" value="" style="endArrow=classic;html=1;rounded=0;entryX=1.108;entryY=0.576;entryDx=0;entryDy=0;entryPerimeter=0;" edge="1" parent="1" target="cca4ETdbcq7dfHgLFpe_-120">
          <mxGeometry width="50" height="50" relative="1" as="geometry">
            <mxPoint x="1319.25" y="730" as="sourcePoint" />
            <mxPoint x="1139.25" y="730" as="targetPoint" />
          </mxGeometry>
        </mxCell>
        <mxCell id="cca4ETdbcq7dfHgLFpe_-106" value="Order Rejected" style="text;html=1;align=center;verticalAlign=middle;whiteSpace=wrap;rounded=0;" vertex="1" parent="1">
          <mxGeometry x="1151" y="690" width="60" height="30" as="geometry" />
        </mxCell>
        <mxCell id="cca4ETdbcq7dfHgLFpe_-107" value="" style="endArrow=none;html=1;rounded=0;endFill=0;startArrow=classic;startFill=1;exitX=0.05;exitY=0.919;exitDx=0;exitDy=0;exitPerimeter=0;" edge="1" parent="1" source="cca4ETdbcq7dfHgLFpe_-118">
          <mxGeometry width="50" height="50" relative="1" as="geometry">
            <mxPoint x="1318.5" y="790" as="sourcePoint" />
            <mxPoint x="1138.5" y="790" as="targetPoint" />
          </mxGeometry>
        </mxCell>
        <mxCell id="cca4ETdbcq7dfHgLFpe_-108" value="Acknowledged" style="text;html=1;align=center;verticalAlign=middle;whiteSpace=wrap;rounded=0;" vertex="1" parent="1">
          <mxGeometry x="1211" y="750" width="60" height="30" as="geometry" />
        </mxCell>
        <mxCell id="cca4ETdbcq7dfHgLFpe_-109" value="Is the order valid?" style="text;html=1;align=center;verticalAlign=middle;whiteSpace=wrap;rounded=0;" vertex="1" parent="1">
          <mxGeometry x="1230" y="585" width="90" height="30" as="geometry" />
        </mxCell>
        <mxCell id="cca4ETdbcq7dfHgLFpe_-111" value="NO PHASE" style="text;html=1;align=center;verticalAlign=middle;whiteSpace=wrap;rounded=0;" vertex="1" parent="1">
          <mxGeometry x="1360" y="660" width="60" height="30" as="geometry" />
        </mxCell>
        <mxCell id="cca4ETdbcq7dfHgLFpe_-113" value="" style="endArrow=none;dashed=1;html=1;rounded=0;" edge="1" parent="1" source="cca4ETdbcq7dfHgLFpe_-118" target="cca4ETdbcq7dfHgLFpe_-112">
          <mxGeometry width="50" height="50" relative="1" as="geometry">
            <mxPoint x="1318" y="840" as="sourcePoint" />
            <mxPoint x="1322.25" y="234.99573414522058" as="targetPoint" />
          </mxGeometry>
        </mxCell>
        <mxCell id="cca4ETdbcq7dfHgLFpe_-112" value="" style="rounded=0;whiteSpace=wrap;html=1;" vertex="1" parent="1">
          <mxGeometry x="1310" y="290" width="20" height="200" as="geometry" />
        </mxCell>
        <mxCell id="cca4ETdbcq7dfHgLFpe_-115" value="" style="endArrow=none;dashed=1;html=1;rounded=0;" edge="1" parent="1" target="cca4ETdbcq7dfHgLFpe_-114">
          <mxGeometry width="50" height="50" relative="1" as="geometry">
            <mxPoint x="1508" y="840" as="sourcePoint" />
            <mxPoint x="1512.25" y="229.99573414522058" as="targetPoint" />
          </mxGeometry>
        </mxCell>
        <mxCell id="cca4ETdbcq7dfHgLFpe_-114" value="" style="rounded=0;whiteSpace=wrap;html=1;" vertex="1" parent="1">
          <mxGeometry x="1500" y="290" width="20" height="200" as="geometry" />
        </mxCell>
        <mxCell id="cca4ETdbcq7dfHgLFpe_-91" value="validateAndCalculate(orderDetails)" style="text;html=1;align=center;verticalAlign=middle;whiteSpace=wrap;rounded=0;" vertex="1" parent="1">
          <mxGeometry x="1388.5" y="300" width="60" height="30" as="geometry" />
        </mxCell>
        <mxCell id="cca4ETdbcq7dfHgLFpe_-116" value="" style="rounded=0;whiteSpace=wrap;html=1;" vertex="1" parent="1">
          <mxGeometry x="1680" y="290" width="20" height="200" as="geometry" />
        </mxCell>
        <mxCell id="cca4ETdbcq7dfHgLFpe_-117" value="" style="rounded=0;whiteSpace=wrap;html=1;" vertex="1" parent="1">
          <mxGeometry x="1870" y="290" width="20" height="200" as="geometry" />
        </mxCell>
        <mxCell id="cca4ETdbcq7dfHgLFpe_-119" value="" style="endArrow=none;dashed=1;html=1;rounded=0;" edge="1" parent="1" target="cca4ETdbcq7dfHgLFpe_-118">
          <mxGeometry width="50" height="50" relative="1" as="geometry">
            <mxPoint x="1318" y="840" as="sourcePoint" />
            <mxPoint x="1320" y="490" as="targetPoint" />
          </mxGeometry>
        </mxCell>
        <mxCell id="cca4ETdbcq7dfHgLFpe_-118" value="" style="rounded=0;whiteSpace=wrap;html=1;" vertex="1" parent="1">
          <mxGeometry x="1310" y="605" width="20" height="200" as="geometry" />
        </mxCell>
        <mxCell id="cca4ETdbcq7dfHgLFpe_-121" value="" style="endArrow=none;dashed=1;html=1;rounded=0;" edge="1" parent="1" target="cca4ETdbcq7dfHgLFpe_-120">
          <mxGeometry width="50" height="50" relative="1" as="geometry">
            <mxPoint x="1142.75" y="840.78" as="sourcePoint" />
            <mxPoint x="1147.25" y="279.9957341452206" as="targetPoint" />
          </mxGeometry>
        </mxCell>
        <mxCell id="cca4ETdbcq7dfHgLFpe_-120" value="" style="rounded=0;whiteSpace=wrap;html=1;" vertex="1" parent="1">
          <mxGeometry x="1135" y="615" width="20" height="200" as="geometry" />
        </mxCell>
      </root>
    </mxGraphModel>
  </diagram>
</mxfile>
